<?xml version="1.0" encoding="UTF-8" standalone="no"?>
<svg
   xmlns:dc="http://purl.org/dc/elements/1.1/"
   xmlns:cc="http://creativecommons.org/ns#"
   xmlns:rdf="http://www.w3.org/1999/02/22-rdf-syntax-ns#"
   xmlns:svg="http://www.w3.org/2000/svg"
   xmlns="http://www.w3.org/2000/svg"
   xmlns:sodipodi="http://sodipodi.sourceforge.net/DTD/sodipodi-0.dtd"
   xmlns:inkscape="http://www.inkscape.org/namespaces/inkscape"
   fill="black"
   width="35.727051"
   height="25.636967"
   viewBox="0 0 714.54102 153.8218"
   version="1.1"
   id="svg58"
   sodipodi:docname="docker2.svg"
   inkscape:version="1.0.1 (3bc2e813f5, 2020-09-07)">
  <defs
     id="defs62" />
  <sodipodi:namedview
     pagecolor="#ffffff"
     bordercolor="#666666"
     borderopacity="1"
     objecttolerance="10"
     gridtolerance="10"
     guidetolerance="10"
     inkscape:pageopacity="0"
     inkscape:pageshadow="2"
     inkscape:window-width="1920"
     inkscape:window-height="1001"
     id="namedview60"
     showgrid="false"
     fit-margin-top="0"
     fit-margin-left="0"
     fit-margin-right="0"
     fit-margin-bottom="0"
     inkscape:zoom="8.3"
     inkscape:cx="50.000002"
     inkscape:cy="8.9156627"
     inkscape:window-x="-9"
     inkscape:window-y="-9"
     inkscape:window-maximized="1"
     inkscape:current-layer="svg58" />
  <path
     d="m 677.00027,26.701584 c -1.77515,-1.409767 -18.34712,-13.922735 -53.29542,-13.922735 -9.22799,0.04031 -18.43681,0.831755 -27.53678,2.367021 -6.7639,-46.362102 -45.09421,-68.966057 -46.81273,-69.9801 l -9.38455,-5.411907 -6.17218,8.906558 c -7.72961,11.964269 -13.37217,25.153269 -16.6846,39.006379 -6.25739,26.465025 -2.45231,51.322406 10.99135,72.573386 -16.23371,9.04671 -42.27557,11.273582 -47.54562,11.47053 H 49.404493 c -11.261651,0.01553 -20.399974,9.116329 -20.461334,20.37708 -0.502892,37.771564 5.89648,75.317794 18.882997,110.790114 14.852486,38.95055 36.948946,67.64156 65.696774,85.19995 32.2138,19.72851 84.55114,31.0021 143.87765,31.0021 26.80123,0.0843 53.55195,-2.34135 79.90162,-7.24297 36.62837,-6.7255 71.87429,-19.52792 104.27966,-37.87972 26.70126,-15.46258 50.73249,-35.13341 71.1644,-58.25578 34.15879,-38.66842 54.50831,-81.73372 69.64217,-120.006363 2.029,0 4.0587,0 6.03106,0 37.39955,0 60.39833,-14.966099 73.08063,-27.507467 8.42845,-7.998772 15.00822,-17.742582 19.27788,-28.549896 l 2.67767,-7.834803 z"
     id="path38"
     style="stroke-width:0.91605" />
  <path
     d="m 89.368985,59.085078 h 57.776745 c 2.78638,0 5.04436,-2.258932 5.04436,-5.04458 v 0 -51.4643877 c 0.0164,-2.78657004 -2.2304,-5.057402 -5.01609,-5.07297 -0.01,0 -0.0182,0 -0.0277,0 H 89.368985 c -2.78657,0 -5.044574,2.25891996 -5.044574,5.044571 0,0.0092 0,0.0192 0,0.02838 V 54.039579 c 0,2.786558 2.258004,5.04549 5.044574,5.04549 v 0"
     id="path40"
     style="stroke-width:0.91605" />
  <path
     d="m 168.98844,59.085078 h 57.77649 c 2.78662,0 5.0446,-2.258932 5.0446,-5.04458 v 0 -51.4643877 c 0.0156,-2.78657004 -2.2304,-5.057402 -5.01709,-5.07297 -0.01,0 -0.0182,0 -0.0277,0 h -57.77693 c -2.80219,0 -5.073,2.27083596 -5.073,5.07297 V 54.039586 c 0.0167,2.79114 2.28264,5.045492 5.07397,5.045492"
     id="path42"
     style="stroke-width:0.91605" />
  <path
     d="m 249.81868,59.085078 h 57.77665 c 2.78666,0 5.04463,-2.258932 5.04463,-5.04458 v 0 -51.4643877 c 0.0171,-2.78657004 -2.23058,-5.057402 -5.01707,-5.07297 -0.01,0 -0.0191,0 -0.0277,0 h -57.77686 c -2.78639,0 -5.04437,2.25891996 -5.04437,5.044571 0,0.0092 0,0.0192 0,0.02838 V 54.039579 c 8.3e-4,2.786558 2.25973,5.04549 5.04537,5.04549 v 0"
     id="path44"
     style="stroke-width:0.91605" />
  <path
     d="m 329.69168,59.085078 h 57.77674 c 2.79106,0 5.05751,-2.253442 5.073,-5.04458 V 2.5761103 c 0,-2.80213404 -2.27082,-5.07297 -5.073,-5.07297 v 0 h -57.77674 c -2.78633,0 -5.04437,2.25891996 -5.04437,5.044571 0,0.0092 0,0.0192 0,0.02838 V 54.039579 c 0,2.786558 2.25875,5.04549 5.04437,5.04549 v 0"
     id="path46"
     style="stroke-width:0.91605" />
  <path
     d="m 168.98844,-14.95396 h 57.77649 c 2.79035,-0.01556 5.0446,-2.282739 5.0446,-5.072972 v -51.46347 c 0,-2.786574 -2.25893,-5.044584 -5.0446,-5.044584 v 0 h -57.77649 c -2.79037,0 -5.05747,2.25344 -5.07302,5.044584 v 51.46347 c 0.0162,2.795724 2.27727,5.057405 5.07302,5.072972"
     id="path48"
     style="stroke-width:0.91605" />
  <path
     d="m 249.81868,-14.95396 h 57.77665 c 2.79016,-0.01556 5.04463,-2.282739 5.04463,-5.072972 v -51.46347 c 0,-2.786574 -2.25892,-5.044584 -5.04463,-5.044584 v 0 h -57.77665 c -2.78649,0 -5.04447,2.25894 -5.04447,5.044584 v 0 51.46347 c 0,2.790233 2.25436,5.057405 5.04447,5.072972"
     id="path50"
     style="stroke-width:0.91605" />
  <path
     d="m 329.69168,-14.95396 h 57.77674 c 2.79579,-0.01556 5.05751,-2.277248 5.073,-5.072972 v -51.46347 c -0.0165,-2.791144 -2.28194,-5.044584 -5.073,-5.044584 h -57.77674 c -2.78633,0 -5.04437,2.25894 -5.04437,5.044584 v 0 51.46347 c 0,2.790233 2.25431,5.057405 5.04437,5.072972"
     id="path52"
     style="stroke-width:0.91605" />
  <path
     d="m 329.69168,-89.020506 h 57.77674 c 2.79106,0 5.05751,-2.2543 5.073,-5.04448 v -51.492804 c -0.0165,-2.79124 -2.28194,-5.04462 -5.073,-5.04462 h -57.77674 c -2.78633,0 -5.04437,2.258 -5.04437,5.04462 v 0 51.491864 c 0,2.7865 2.25875,5.04542 5.04437,5.04542"
     id="path54"
     style="stroke-width:0.91605" />
  <path
     d="m 410.26928,59.085078 h 57.7767 c 2.7911,0 5.05749,-2.253442 5.07299,-5.04458 V 2.5761103 c 0,-2.80213404 -2.27076,-5.07297 -5.07299,-5.07297 v 0 h -57.7767 c -2.78568,0 -5.04457,2.25891996 -5.04457,5.044571 0,0.0092 0,0.0192 0,0.02838 V 54.039579 c 0,2.786558 2.25889,5.04549 5.04457,5.04549"
     id="path56"
     style="stroke-width:0.91605" />
</svg>
