<?xml version="1.0" encoding="UTF-8" standalone="no"?>
<svg
   xmlns:dc="http://purl.org/dc/elements/1.1/"
   xmlns:cc="http://creativecommons.org/ns#"
   xmlns:rdf="http://www.w3.org/1999/02/22-rdf-syntax-ns#"
   xmlns:svg="http://www.w3.org/2000/svg"
   xmlns="http://www.w3.org/2000/svg"
   xmlns:sodipodi="http://sodipodi.sourceforge.net/DTD/sodipodi-0.dtd"
   xmlns:inkscape="http://www.inkscape.org/namespaces/inkscape"
   height="26"
   viewBox="0 0 11.924355 26"
   version="1.1"
   id="svg112"
   sodipodi:docname="monogDB.svg"
   width="11.924355"
   inkscape:version="1.0.1 (3bc2e813f5, 2020-09-07)">
  <metadata
     id="metadata118">
    <rdf:RDF>
      <cc:Work
         rdf:about="">
        <dc:format>image/svg+xml</dc:format>
        <dc:type
           rdf:resource="http://purl.org/dc/dcmitype/StillImage" />
        <dc:title></dc:title>
      </cc:Work>
    </rdf:RDF>
  </metadata>
  <defs
     id="defs116" />
  <sodipodi:namedview
     pagecolor="#ffffff"
     bordercolor="#666666"
     borderopacity="1"
     objecttolerance="10"
     gridtolerance="10"
     guidetolerance="10"
     inkscape:pageopacity="0"
     inkscape:pageshadow="2"
     inkscape:window-width="1920"
     inkscape:window-height="1001"
     id="namedview114"
     showgrid="false"
     fit-margin-top="0"
     fit-margin-left="0"
     fit-margin-right="0"
     fit-margin-bottom="0"
     inkscape:zoom="12.15"
     inkscape:cx="50.003512"
     inkscape:cy="13.483493"
     inkscape:window-x="-9"
     inkscape:window-y="-9"
     inkscape:window-maximized="1"
     inkscape:current-layer="svg112" />
  <g
     id="g110"
     transform="translate(0.00351248)">
    <path
       d="M 11.71,10.41 C 10.31,4.33 7.39,2.71 6.65,1.57 6.34,1.06 6.07,0.54 5.84,0 5.8,0.54 5.73,0.88 5.26,1.29 4.32,2.11 0.35,5.3 0.01,12.21 -0.3,18.65 4.82,22.62 5.5,23.03 c 0.52,0.25 1.15,0 1.46,-0.23 2.47,-1.67 5.84,-6.11 4.75,-12.39"
       fill="#10aa50"
       id="path104" />
    <path
       d="m 5.95,19.5 c -0.13,1.58 -0.23,2.5 -0.57,3.4 0,0 0.23,1.51 0.38,3.1 H 6.32 C 6.45,24.88 6.65,23.76 6.92,22.66 6.21,22.33 5.98,20.89 5.95,19.5 Z"
       fill="#b8c4c2"
       id="path106" />
    <path
       d="m 7.03,22.75 v 0 C 6.34,22.43 6.14,20.94 6.11,19.55 6.28,17.25 6.33,14.95 6.26,12.64 6.22,11.44 6.28,1.46 5.96,0 6.18,0.49 6.43,0.97 6.7,1.44 c 0.74,1.15 3.63,2.77 5.01,8.88 1.08,6.29 -2.24,10.74 -4.68,12.43 z"
       fill="#12924f"
       id="path108" />
  </g>
</svg>
